<svg xmlns="http://www.w3.org/2000/svg" xmlns:xlink="http://www.w3.org/1999/xlink" width="52" zoomAndPan="magnify" viewBox="0 0 39 38.999999" height="52" preserveAspectRatio="xMidYMid meet" version="1.0"><defs><clipPath id="6c974d7420"><path d="M 8.777344 3.898438 L 30.527344 3.898438 L 30.527344 27.898438 L 8.777344 27.898438 Z M 8.777344 3.898438 " clip-rule="nonzero"/></clipPath><clipPath id="cbc5ecc57a"><path d="M 8.777344 28.0625 L 30.527344 28.0625 L 30.527344 34.8125 L 8.777344 34.8125 Z M 8.777344 28.0625 " clip-rule="nonzero"/></clipPath></defs><g clip-path="url(#6c974d7420)"><path fill="#ffbd59" d="M 14.628906 31.578125 C 14.628906 31.960938 14.746094 32.339844 14.957031 32.65625 L 16 34.222656 C 16.179688 34.492188 16.414062 34.707031 16.699219 34.859375 C 16.988281 35.015625 17.292969 35.089844 17.621094 35.09375 L 21.375 35.09375 C 21.703125 35.089844 22.007812 35.015625 22.296875 34.859375 C 22.582031 34.707031 22.816406 34.492188 22.996094 34.222656 L 24.039062 32.65625 C 24.257812 32.328125 24.367188 31.972656 24.367188 31.578125 L 24.367188 29.238281 L 14.625 29.238281 Z M 8.777344 14.625 C 8.777344 17.328125 9.785156 19.796875 11.433594 21.675781 C 12.4375 22.828125 14.015625 25.222656 14.613281 27.25 C 14.613281 27.265625 14.617188 27.28125 14.617188 27.296875 L 24.371094 27.296875 C 24.371094 27.28125 24.378906 27.265625 24.378906 27.25 C 24.980469 25.226562 26.550781 22.828125 27.558594 21.675781 C 29.214844 19.796875 30.210938 17.328125 30.210938 14.625 C 30.210938 8.695312 25.394531 3.890625 19.464844 3.910156 C 13.246094 3.929688 8.777344 8.964844 8.777344 14.625 Z M 19.496094 9.753906 C 16.808594 9.753906 14.625 11.941406 14.625 14.625 C 14.625 15.164062 14.1875 15.601562 13.648438 15.601562 C 13.113281 15.601562 12.675781 15.164062 12.675781 14.625 C 12.675781 10.863281 15.730469 7.804688 19.496094 7.804688 C 20.03125 7.804688 20.46875 8.246094 20.46875 8.78125 C 20.46875 9.316406 20.03125 9.753906 19.496094 9.753906 Z M 19.496094 9.753906 " fill-opacity="1" fill-rule="nonzero"/></g><g clip-path="url(#cbc5ecc57a)"><path fill="#2baae2" d="M 14.628906 31.578125 C 14.628906 31.960938 14.746094 32.339844 14.957031 32.65625 L 16 34.222656 C 16.179688 34.492188 16.414062 34.707031 16.699219 34.859375 C 16.988281 35.015625 17.292969 35.089844 17.621094 35.09375 L 21.375 35.09375 C 21.703125 35.089844 22.007812 35.015625 22.296875 34.859375 C 22.582031 34.707031 22.816406 34.492188 22.996094 34.222656 L 24.039062 32.65625 C 24.257812 32.328125 24.367188 31.972656 24.367188 31.578125 L 24.367188 29.238281 L 14.625 29.238281 Z M 8.777344 14.625 C 8.777344 17.328125 9.785156 19.796875 11.433594 21.675781 C 12.4375 22.828125 14.015625 25.222656 14.613281 27.25 C 14.613281 27.265625 14.617188 27.28125 14.617188 27.296875 L 24.371094 27.296875 C 24.371094 27.28125 24.378906 27.265625 24.378906 27.25 C 24.980469 25.226562 26.550781 22.828125 27.558594 21.675781 C 29.214844 19.796875 30.210938 17.328125 30.210938 14.625 C 30.210938 8.695312 25.394531 3.890625 19.464844 3.910156 C 13.246094 3.929688 8.777344 8.964844 8.777344 14.625 Z M 19.496094 9.753906 C 16.808594 9.753906 14.625 11.941406 14.625 14.625 C 14.625 15.164062 14.1875 15.601562 13.648438 15.601562 C 13.113281 15.601562 12.675781 15.164062 12.675781 14.625 C 12.675781 10.863281 15.730469 7.804688 19.496094 7.804688 C 20.03125 7.804688 20.46875 8.246094 20.46875 8.78125 C 20.46875 9.316406 20.03125 9.753906 19.496094 9.753906 Z M 19.496094 9.753906 " fill-opacity="1" fill-rule="nonzero"/></g></svg>